<svg xmlns="http://www.w3.org/2000/svg" width="80" height="80" viewBox="0 0 80 80" fill="none">
  <path d="M7.24 17.1201C2.68 23.6001 0 31.4801 0 40.0001C0 48.5201 2.68 56.4001 7.24 62.8801C16.92 59.8001 24 50.7201 24 40.0001C24 29.2801 16.92 20.2001 7.24 17.1201Z" fill="#FEFCFC"/>
  <path d="M72.76 17.1201C63.08 20.2001 56 29.2801 56 40.0001C56 50.7201 63.08 59.8001 72.76 62.8801C77.32 56.4001 80 48.5201 80 40.0001C80 31.4801 77.32 23.6001 72.76 17.1201Z" fill="#FEFCFC"/>
  <path d="M48 40C48 26.88 55.88 15.64 67.16 10.68C60.04 4.08 50.52 0 40 0C29.48 0 19.96 4.08 12.84 10.68C24.12 15.64 32 26.88 32 40C32 53.12 24.12 64.36 12.84 69.32C19.96 75.92 29.48 80 40 80C50.52 80 60.04 75.92 67.16 69.32C55.88 64.36 48 53.12 48 40Z" fill="#FEFCFC"/>
</svg>